<svg xmlns="http://www.w3.org/2000/svg" width="24" height="24" viewBox="0 0 24 24" fill="none" style="
    width: 24px;
    height: 24px;
">
  <path d="M3.55589 4.67015C3.66403 3.98005 4.26005 3.46875 4.95858 3.46875H19.0414C19.74 3.46875 20.336 3.98005 20.4441 4.67016C21.7318 12.8878 21.9531 16.1768 21.9531 16.1768C21.9531 16.1768 21.9531 17.7473 21.8703 19.4697C21.808 20.766 20.8087 21.7643 19.5123 21.823C18.033 21.8899 15.6649 21.9531 12 21.9531C8.33512 21.9531 5.96698 21.8899 4.48775 21.823C3.19129 21.7643 2.19201 20.766 2.12969 19.4697C2.04688 17.7473 2.04688 16.1768 2.04688 16.1768C2.04688 16.1768 2.26814 12.8878 3.55589 4.67015Z" stroke="currentColor" stroke-width="1.5" stroke-linejoin="round"/>
  <path d="M7.73438 7.26074C7.73438 9.86813 9.64414 11.9818 12 11.9818C14.3559 11.9818 16.2656 9.86813 16.2656 7.26074" stroke="currentColor" stroke-width="1.5" stroke-linecap="round" stroke-linejoin="round"/>
</svg>