<svg preserveAspectRatio="none" width="100%" height="100%" overflow="visible" style="display: block;" viewBox="0 0 22.4999 13.8057" fill="none" xmlns="http://www.w3.org/2000/svg">
<g id="Maestro">
<path id="Left" d="M6.82422 0C10.5927 0.00024504 13.6475 3.09106 13.6475 6.90332C13.6473 10.7154 10.5926 13.8054 6.82422 13.8057C3.05566 13.8057 0.000178828 10.7156 0 6.90332C0 3.09091 3.05555 0 6.82422 0Z" fill="var(--fill-0, #ED0006)"/>
<path id="Right" d="M15.6767 0C19.4451 0.00024504 22.4999 3.09106 22.4999 6.90332C22.4997 10.7154 19.445 13.8054 15.6767 13.8057C11.9081 13.8057 8.85264 10.7156 8.85246 6.90332C8.85246 3.09091 11.908 0 15.6767 0Z" fill="var(--fill-0, #0099DF)"/>
<path id="Middle" d="M11.25 1.651C12.7166 2.91713 13.6474 4.79961 13.6474 6.90295C13.6474 9.00607 12.7163 10.8878 11.25 12.1539C9.78365 10.8878 8.85251 9.00604 8.85251 6.90295C8.85251 4.79963 9.78337 2.91713 11.25 1.651Z" fill="var(--fill-0, #6C6BBD)"/>
</g>
</svg>
