<svg preserveAspectRatio="none" width="100%" height="100%" overflow="visible" style="display: block;" viewBox="0 0 26 10.3697" fill="none" xmlns="http://www.w3.org/2000/svg">
<path id="Shop Pay" d="M15.2044 3.06124C15.2044 4.60134 14.1247 5.70075 12.6158 5.70075H11.1943C11.1786 5.70075 11.163 5.70385 11.1485 5.70988C11.1341 5.7159 11.1209 5.72473 11.1098 5.73585C11.0988 5.74697 11.09 5.76018 11.084 5.7747C11.0781 5.78922 11.0751 5.80477 11.0751 5.82047V7.84463C11.0751 7.87628 11.0626 7.90664 11.0403 7.92908C11.0179 7.95151 10.9876 7.96419 10.956 7.96435H9.96126C9.93761 7.96423 9.91452 7.95715 9.89488 7.94398C9.87523 7.93082 9.8599 7.91215 9.8508 7.89032C9.8448 7.87603 9.84166 7.86071 9.84155 7.84521V0.540865C9.84147 0.525172 9.8445 0.509617 9.85045 0.495096C9.8564 0.480575 9.86517 0.467373 9.87624 0.456249C9.88731 0.445125 9.90047 0.436298 9.91496 0.430274C9.92945 0.424251 9.94499 0.42115 9.96069 0.421151H12.6222C14.1247 0.419416 15.2044 1.51883 15.2044 3.06124V3.06124ZM13.9639 3.06124C13.9639 2.17581 13.3601 1.52866 12.5412 1.52866H11.1943C11.1786 1.52866 11.163 1.53176 11.1485 1.53778C11.1341 1.5438 11.1209 1.55263 11.1098 1.56376C11.0988 1.57488 11.09 1.58808 11.084 1.6026C11.0781 1.61712 11.0751 1.63268 11.0751 1.64837V4.46717C11.0751 4.49876 11.0877 4.52907 11.11 4.55141C11.1324 4.57375 11.1627 4.5863 11.1943 4.5863H12.5412C13.3601 4.59209 13.9639 3.94435 13.9639 3.06124ZM15.4994 6.56305C15.4891 6.32684 15.5379 6.0918 15.6416 5.8793C15.7452 5.66679 15.9003 5.48355 16.0927 5.34623C16.4808 5.05418 17.0875 4.90323 17.9781 4.872L18.9266 4.83846V4.55854C18.9266 3.99756 18.5507 3.76044 17.9469 3.76044C17.3431 3.76044 16.9602 3.97443 16.8723 4.32432C16.8652 4.34892 16.85 4.37045 16.8293 4.38553C16.8086 4.4006 16.7834 4.40836 16.7578 4.4076H15.8209C15.8037 4.40807 15.7865 4.40473 15.7707 4.39782C15.7549 4.39092 15.7408 4.38061 15.7294 4.36763C15.7181 4.35465 15.7097 4.33933 15.7049 4.32275C15.7001 4.30616 15.6991 4.28873 15.7018 4.27169C15.8406 3.44236 16.5305 2.81198 17.9897 2.81198C19.5419 2.81198 20.1023 3.53489 20.1023 4.9148V7.84463C20.102 7.87659 20.0891 7.90712 20.0663 7.92956C20.0436 7.95199 20.0128 7.9645 19.9809 7.96435H19.0365C19.0049 7.96426 18.9746 7.95181 18.952 7.92965C18.941 7.91854 18.9322 7.90537 18.9263 7.89088C18.9203 7.87639 18.9173 7.86087 18.9173 7.84521V7.62602C18.9177 7.60791 18.9125 7.59012 18.9025 7.57499C18.8926 7.55986 18.8783 7.54811 18.8615 7.54129C18.8447 7.53446 18.8262 7.53288 18.8085 7.53675C18.7908 7.54063 18.7747 7.54977 18.7623 7.56298C18.4789 7.87123 18.0215 8.09389 17.2887 8.09389C16.2107 8.09389 15.4994 7.53291 15.4994 6.56305V6.56305ZM18.9266 5.92804V5.70075L17.6982 5.76552C17.051 5.79849 16.6746 6.06741 16.6746 6.52025C16.6746 6.92971 17.0198 7.15641 17.623 7.15641C18.4425 7.15641 18.9266 6.71399 18.9266 5.92804V5.92804ZM21.0508 10.1782V9.32921C21.051 9.31141 21.0551 9.29386 21.0628 9.27781C21.0705 9.26177 21.0817 9.24762 21.0955 9.23636C21.1093 9.2251 21.1254 9.21702 21.1426 9.21267C21.1599 9.20833 21.1779 9.20784 21.1954 9.21123C21.34 9.23841 21.4874 9.25229 21.6349 9.25287C21.8884 9.2652 22.1388 9.19212 22.3459 9.04533C22.5529 8.89854 22.7048 8.68652 22.7771 8.44321L22.8384 8.24773C22.8473 8.22147 22.8473 8.19302 22.8384 8.16676L20.8704 3.11213C20.8632 3.09381 20.8607 3.07403 20.8629 3.0545C20.8651 3.03497 20.872 3.01627 20.8831 3C20.8941 2.98373 20.9089 2.97039 20.9262 2.96111C20.9436 2.95183 20.9629 2.9469 20.9826 2.94673H21.9368C21.9612 2.94698 21.9849 2.95456 22.0049 2.96849C22.0249 2.98241 22.0403 3.00203 22.049 3.02481L23.3855 6.58965C23.3939 6.61333 23.4094 6.63384 23.4299 6.64834C23.4504 6.66284 23.4749 6.67063 23.5 6.67063C23.5252 6.67063 23.5497 6.66284 23.5702 6.64834C23.5907 6.63384 23.6062 6.61333 23.6145 6.58965L24.7753 3.03464C24.7833 3.01034 24.7988 2.9892 24.8196 2.97425C24.8404 2.95929 24.8653 2.95128 24.8909 2.95136H25.8781C25.8979 2.95148 25.9174 2.95638 25.9348 2.96565C25.9523 2.97491 25.9673 2.98827 25.9785 3.00458C25.9897 3.02088 25.9968 3.03965 25.9991 3.05929C26.0015 3.07892 25.9991 3.09884 25.9921 3.11734L23.8869 8.73064C23.4023 10.0354 22.5712 10.3691 21.6563 10.3691C21.4828 10.3737 21.3093 10.3529 21.1416 10.3072C21.1137 10.2998 21.0893 10.2828 21.0727 10.2592C21.0561 10.2356 21.0483 10.2069 21.0508 10.1782V10.1782ZM3.44924 0.000124541C2.19546 -0.00880815 0.985931 0.463082 0.0694612 1.31872C0.0302691 1.35462 0.00583599 1.40381 0.000918468 1.45673C-0.00399906 1.50964 0.0109509 1.5625 0.0428579 1.605L0.610202 2.37996C0.628595 2.40577 0.652418 2.42722 0.679995 2.44283C0.707572 2.45844 0.738234 2.46781 0.769823 2.47029C0.801412 2.47277 0.833161 2.4683 0.862836 2.45719C0.892512 2.44608 0.919392 2.4286 0.941587 2.40599C1.27113 2.07653 1.66303 1.81607 2.09438 1.63981C2.52574 1.46355 2.98791 1.37504 3.45386 1.37945C5.39938 1.37945 6.41551 2.84379 6.41551 4.28962C6.41551 5.86153 5.3479 6.9673 3.81359 6.98928C2.62801 6.98928 1.73448 6.20332 1.73448 5.16522C1.73572 4.90296 1.79513 4.64424 1.90844 4.40772C2.02175 4.1712 2.18613 3.96277 2.38973 3.79746C2.43277 3.7615 2.45998 3.71009 2.4655 3.65428C2.47101 3.59847 2.4544 3.54272 2.41923 3.49904L1.82297 2.74605C1.80493 2.72328 1.78252 2.70435 1.75706 2.69038C1.73159 2.67641 1.70358 2.66769 1.67469 2.66473C1.64579 2.66176 1.6166 2.66461 1.58882 2.67312C1.56105 2.68162 1.53526 2.69561 1.51298 2.71424C1.14679 3.00927 0.851281 3.38253 0.648132 3.80664C0.444983 4.23075 0.339344 4.69496 0.338964 5.16522C0.338964 6.95226 1.85767 8.35414 3.80318 8.36571H3.8292C6.13906 8.33564 7.80929 6.62493 7.80929 4.28673C7.80929 2.21051 6.28018 0.000124541 3.44982 0.000124541H3.44924Z" fill="var(--fill-0, white)"/>
</svg>
