<svg preserveAspectRatio="none" width="100%" height="100%" overflow="visible" style="display: block;" viewBox="0 0 14.4141 9.69966" fill="none" xmlns="http://www.w3.org/2000/svg">
<g id="Pay">
<path id="Union" d="M11.9111 6.01801H11.9287L13.3877 2.35493H14.4141L11.2598 9.69966H10.2871L11.459 7.13032L9.39062 2.35493H10.416L11.9111 6.01801ZM6.97559 2.18891C7.67287 2.18897 8.22356 2.37888 8.62793 2.75337C9.03229 3.12793 9.23233 3.6511 9.23242 4.31098V7.45747H8.3291V6.74946H8.28809C7.89544 7.33213 7.37994 7.62337 6.72949 7.62348C6.17854 7.62348 5.70911 7.45744 5.33984 7.12446C4.97643 6.81523 4.77148 6.35712 4.7832 5.87544C4.7832 5.34619 4.9823 4.92987 5.375 4.61469C5.76772 4.29952 6.29565 4.14497 6.95215 4.14497C7.51472 4.14501 7.97161 4.25238 8.33496 4.45454V4.23383C8.33488 3.90687 8.19436 3.59727 7.94824 3.38325C7.6963 3.15749 7.37393 3.03273 7.04004 3.03266C6.51256 3.03266 6.09581 3.25855 5.79102 3.7104L4.95898 3.1811C5.40446 2.52123 6.07892 2.18891 6.97559 2.18891ZM2.50293 0.000436415C3.10666 -0.0114472 3.69321 0.219739 4.12109 0.647897C4.97673 1.45658 5.02933 2.81866 4.22656 3.69282L4.12109 3.80024C3.68149 4.22245 3.14182 4.43597 2.50293 4.43598H0.943359V7.45747H0V0.000436415H2.50293ZM7.09863 4.91841C6.71769 4.91842 6.3956 5.01345 6.1377 5.1977C5.88567 5.382 5.75593 5.61361 5.75586 5.89301C5.75586 6.14278 5.87392 6.37529 6.06738 6.51801C6.27835 6.68429 6.53619 6.77298 6.7998 6.76704C7.19843 6.76702 7.57995 6.60715 7.86133 6.32173C8.17194 6.02445 8.33003 5.67326 8.33008 5.26899C8.03695 5.03112 7.62626 4.91246 7.09863 4.91841ZM0.943359 3.52094H2.52637C2.87809 3.53284 3.21863 3.3899 3.45898 3.13423C3.95139 2.6169 3.93959 1.78416 3.42969 1.28462C3.18933 1.04675 2.86639 0.915475 2.52637 0.915475H0.943359V3.52094Z" fill="var(--fill-0, #3C4043)"/>
</g>
</svg>
