<svg preserveAspectRatio="none" width="100%" height="100%" overflow="visible" style="display: block;" viewBox="0 0 13.4169 13.1151" fill="none" xmlns="http://www.w3.org/2000/svg">
<g id="Group">
<path id="Vector" d="M7.43754 12.9342C7.43746 12.9585 7.44343 12.9824 7.4549 13.0037C7.46638 13.0251 7.48301 13.0433 7.50329 13.0566C7.52356 13.0699 7.54683 13.078 7.571 13.08C7.59517 13.0821 7.61948 13.0781 7.64171 13.0684L13.0725 10.6009C13.1776 10.5537 13.2664 10.4764 13.3277 10.3788C13.3889 10.2813 13.4199 10.1677 13.4167 10.0525V3.57172C13.4168 3.54746 13.4108 3.52356 13.3993 3.50219C13.3879 3.48082 13.3712 3.46266 13.351 3.44933C13.3307 3.43601 13.3074 3.42796 13.2832 3.4259C13.2591 3.42384 13.2348 3.42785 13.2125 3.43755L7.52504 6.02172C7.49896 6.0331 7.47677 6.05187 7.46122 6.07571C7.44567 6.09955 7.43744 6.12742 7.43754 6.15588V12.9342ZM10.2959 7.32255C10.3221 7.29465 10.3537 7.27241 10.3888 7.25721C10.4239 7.24201 10.4618 7.23416 10.5 7.23416C10.5383 7.23416 10.5762 7.24201 10.6113 7.25721C10.6464 7.27241 10.678 7.29465 10.7042 7.32255L11.5792 8.19755C11.621 8.23711 11.6495 8.28856 11.661 8.34492C11.6725 8.40128 11.6663 8.45981 11.6434 8.51255C11.6215 8.56581 11.5843 8.61141 11.5366 8.64359C11.4888 8.67577 11.4326 8.6931 11.375 8.69338H11.0834C11.0447 8.69338 11.0076 8.70875 10.9803 8.7361C10.9529 8.76345 10.9375 8.80054 10.9375 8.83922V9.86005C10.9375 9.97608 10.8914 10.0874 10.8094 10.1694C10.7274 10.2515 10.6161 10.2975 10.5 10.2975C10.384 10.2975 10.2727 10.2515 10.1907 10.1694C10.1086 10.0874 10.0625 9.97608 10.0625 9.86005V8.83922C10.0625 8.80054 10.0472 8.76345 10.0198 8.7361C9.99248 8.70875 9.95539 8.69338 9.91671 8.69338H9.62504C9.56746 8.6931 9.51125 8.67577 9.4635 8.64359C9.41575 8.61141 9.37859 8.56581 9.35671 8.51255C9.33376 8.45981 9.3276 8.40128 9.33908 8.34492C9.35056 8.28856 9.37912 8.23711 9.42087 8.19755L10.2959 7.32255Z" fill="var(--fill-0, #2E432F)"/>
<path id="Vector_2" d="M4.13004 5.05961C4.1101 5.04656 4.08679 5.03961 4.06296 5.03961C4.03913 5.03961 4.01581 5.04656 3.99587 5.05961C3.97588 5.07312 3.95955 5.09139 3.94835 5.11277C3.93715 5.13415 3.93143 5.15797 3.93171 5.18211V6.34877C3.93171 6.4648 3.88561 6.57608 3.80357 6.65813C3.72152 6.74018 3.61024 6.78627 3.49421 6.78627C3.37818 6.78627 3.2669 6.74018 3.18485 6.65813C3.1028 6.57608 3.05671 6.4648 3.05671 6.34877V4.70377C3.05558 4.67483 3.0462 4.64682 3.02966 4.62304C3.01312 4.59927 2.99012 4.58072 2.96337 4.56961L0.204207 3.40294C0.182224 3.39295 0.158355 3.38778 0.134207 3.38778C0.110059 3.38778 0.0861911 3.39295 0.0642074 3.40294C0.0445674 3.41681 0.0285066 3.43515 0.0173499 3.45645C0.00619322 3.47775 0.000260343 3.5014 4.06839e-05 3.52544V10.0529C0.000615548 10.1681 0.035267 10.2805 0.099628 10.376C0.163989 10.4715 0.25518 10.5458 0.361707 10.5896L6.35837 13.0979C6.37999 13.1092 6.404 13.1151 6.42837 13.1151C6.45274 13.1151 6.47675 13.1092 6.49837 13.0979C6.5183 13.0858 6.5347 13.0686 6.54595 13.0481C6.5572 13.0277 6.56292 13.0046 6.56254 12.9813V6.16794C6.56264 6.13948 6.55441 6.11161 6.53886 6.08777C6.52331 6.06393 6.50113 6.04516 6.47504 6.03377L4.13004 5.05961Z" fill="var(--fill-0, #2E432F)"/>
<path id="Vector_3" d="M8.98326 1.19787C9.00441 1.18306 9.02105 1.16269 9.03135 1.13901C9.04164 1.11533 9.04519 1.08927 9.0416 1.0637C9.04131 1.03606 9.03285 1.00912 9.01728 0.986285C9.0017 0.963448 8.97972 0.94573 8.9541 0.935366L6.9416 0.0486995C6.868 0.0165792 6.78856 0 6.70826 0C6.62796 0 6.54853 0.0165792 6.47493 0.0486995L0.874931 2.46953C0.84882 2.48249 0.826816 2.50243 0.811368 2.52715C0.79592 2.55187 0.787633 2.58039 0.787431 2.60953C0.783214 2.63943 0.789676 2.66986 0.805681 2.69547C0.821685 2.72108 0.846206 2.74022 0.874931 2.74953L3.3191 3.77037C3.33839 3.77888 3.35925 3.78328 3.38035 3.78328C3.40144 3.78328 3.4223 3.77888 3.4416 3.77037L8.98326 1.19787Z" fill="var(--fill-0, #2E432F)"/>
<path id="Vector_4" d="M6.93604 5.27552C6.95423 5.2843 6.97417 5.28886 6.99437 5.28886C7.01458 5.28886 7.03452 5.2843 7.05271 5.27552L12.5769 2.76135C12.603 2.74997 12.6251 2.7312 12.6407 2.70736C12.6562 2.68352 12.6645 2.65565 12.6644 2.62719C12.6641 2.59955 12.6556 2.57261 12.6401 2.54977C12.6245 2.52693 12.6025 2.50922 12.5769 2.49885L10.4127 1.55385C10.3934 1.54533 10.3725 1.54093 10.3515 1.54093C10.3304 1.54093 10.3095 1.54533 10.2902 1.55385L4.77771 4.11469C4.75162 4.12607 4.72944 4.14484 4.71389 4.16868C4.69834 4.19252 4.69011 4.22039 4.69021 4.24885C4.69261 4.27744 4.7025 4.3049 4.71889 4.32845C4.73527 4.352 4.75757 4.37082 4.78354 4.38302L6.93604 5.27552Z" fill="var(--fill-0, #2E432F)"/>
</g>
</svg>
