<svg preserveAspectRatio="none" width="100%" height="100%" overflow="visible" style="display: block;" viewBox="0 0 18 14.3905" fill="none" xmlns="http://www.w3.org/2000/svg">
<g id="DinersClub">
<path id="Vector" d="M10.545 14.3905C14.4425 14.4093 18 11.1827 18 7.25752C18 2.96549 14.4425 -0.00160145 10.545 6.48481e-07H7.19063C3.24666 -0.00160145 0 2.96629 0 7.25752C0 11.1835 3.24666 14.4093 7.19063 14.3905H10.545Z" fill="var(--fill-0, #0079BE)"/>
<path id="Vector_2" d="M7.20665 0.59478C3.60232 0.595982 0.682095 3.54385 0.680893 7.18222C0.682095 10.8202 3.60232 13.768 7.20665 13.7693C10.8114 13.768 13.7328 10.8202 13.7332 7.18222C13.7328 3.54385 10.8118 0.595982 7.20665 0.59478ZM3.07043 7.18222C3.06967 6.34099 3.3227 5.51911 3.79646 4.82398C4.27022 4.12885 4.94266 3.5928 5.72591 3.28591V11.0781C4.9426 10.7714 4.27008 10.2355 3.7963 9.54041C3.32251 8.84532 3.06953 8.02342 3.07043 7.18222V7.18222ZM8.68699 11.0797V3.28551C9.47082 3.59196 10.1438 4.12796 10.618 4.82333C11.0921 5.51869 11.3451 6.34101 11.3441 7.18262C11.345 8.02419 11.0918 8.84643 10.6177 9.54176C10.1437 10.2371 9.47072 10.7731 8.68699 11.0797V11.0797Z" fill="var(--fill-0, white)"/>
<path id="Vector_3" d="M10.545 14.3905C14.4425 14.4093 18 11.1827 18 7.25752C18 2.96549 14.4425 -0.00160145 10.545 6.48481e-07H7.19063C3.24666 -0.00160145 0 2.96629 0 7.25752C0 11.1835 3.24666 14.4093 7.19063 14.3905H10.545Z" fill="var(--fill-0, #0079BE)"/>
<path id="Vector_4" d="M7.20665 0.59478C3.60232 0.595982 0.682095 3.54385 0.680893 7.18222C0.682095 10.8202 3.60232 13.768 7.20665 13.7693C10.8114 13.768 13.7328 10.8202 13.7332 7.18222C13.7328 3.54385 10.8118 0.595982 7.20665 0.59478ZM3.07043 7.18222C3.06967 6.34099 3.3227 5.51911 3.79646 4.82398C4.27022 4.12885 4.94266 3.5928 5.72591 3.28591V11.0781C4.9426 10.7714 4.27008 10.2355 3.7963 9.54041C3.32251 8.84532 3.06953 8.02342 3.07043 7.18222V7.18222ZM8.68699 11.0797V3.28551C9.47082 3.59196 10.1438 4.12796 10.618 4.82333C11.0921 5.51869 11.3451 6.34101 11.3441 7.18262C11.345 8.02419 11.0918 8.84643 10.6177 9.54176C10.1437 10.2371 9.47072 10.7731 8.68699 11.0797V11.0797Z" fill="var(--fill-0, white)"/>
</g>
</svg>
