<svg preserveAspectRatio="none" width="100%" height="100%" overflow="visible" style="display: block;" viewBox="0 0 30 14" fill="none" xmlns="http://www.w3.org/2000/svg">
<g id="Discover">
<path id="Stripe" d="M11 14L30 8.25V11C30 12.6569 28.6569 14 27 14H11Z" fill="var(--fill-0, #FD6020)"/>
<path id="DISC-VER" d="M11.1846 0.111021C11.5504 0.111021 11.9686 0.164667 12.2822 0.379575V1.45379C12.0209 1.13151 11.6026 0.916685 11.1846 0.916685C10.3484 0.970454 9.66942 1.7231 9.72168 2.5827V2.69012C9.72188 3.54956 10.4012 4.19403 11.2373 4.19403C11.6552 4.1939 12.021 3.97915 12.2822 3.65692V4.73114C11.9165 4.89226 11.5508 4.99962 11.1328 4.99969C9.82633 4.99969 8.7805 3.87197 8.78027 2.52899C8.78027 1.13211 9.82572 0.00361076 11.1846 0.111021ZM19.3906 3.33465L20.6445 0.111021H21.585L19.6514 4.99969H19.1807L17.2471 0.111021H18.1885L19.3906 3.33465ZM7.00391 0.00359865C7.47414 0.00373148 7.94481 0.218446 8.31055 0.540708L7.83984 1.18524C7.63089 0.970444 7.36959 0.809427 7.1084 0.809263C6.79485 0.755543 6.53278 1.02407 6.48047 1.34637C6.48047 1.61497 6.63769 1.72235 7.16016 1.93719C8.20545 2.36701 8.46727 2.68993 8.51953 3.33465V3.49579C8.46721 4.35536 7.78737 4.99971 6.95117 4.94598C6.32401 4.94597 5.6964 4.62388 5.38281 4.0329L5.95801 3.44208C6.11482 3.81813 6.48132 4.08661 6.89941 4.08661H6.95117C7.26471 4.08661 7.57803 3.76438 7.57812 3.38836C7.57812 3.17362 7.47397 3.01242 7.31738 2.90497C7.10832 2.79751 6.89851 2.69014 6.68945 2.63641C5.85343 2.36778 5.59277 1.99103 5.59277 1.34637V1.29266C5.64514 0.540584 6.27227 -0.0501233 7.00391 0.00359865ZM1.56836 0.111021C2.82251 0.164971 3.81495 1.23969 3.7627 2.52899C3.76257 3.22723 3.44923 3.87173 2.92676 4.35516C2.45639 4.73121 1.88151 4.94599 1.30664 4.89227H0V0.111021H1.56836ZM5.01758 4.89227H4.12891V0.111021H5.01758V4.89227ZM24.5117 0.916685H22.8916V1.9909H24.46V2.79754H22.8916V4.08661H24.5117V4.89227H22.0039V0.111021H24.5117V0.916685ZM26.3936 0.111021C27.4387 0.111028 28.0135 0.594423 28.0137 1.5075C28.0658 2.20578 27.5957 2.7974 26.9688 2.90497L28.3799 4.89227H27.2822L26.0801 2.95868H25.9756V4.89227H25.0869V0.111021H26.3936ZM1.14941 0.916685H0.888672V4.08661H1.14941C1.56742 4.14031 2.03798 3.97913 2.35156 3.71063C2.66505 3.38837 2.82217 2.95864 2.82227 2.47528C2.82227 2.0455 2.6651 1.61501 2.35156 1.29266C2.03797 1.02422 1.56737 0.862979 1.14941 0.916685ZM25.9756 2.31415H26.2363C26.8112 2.31415 27.0732 2.04465 27.0732 1.56122C27.0731 1.13166 26.811 0.862974 26.2363 0.862974H25.9756V2.31415Z" fill="var(--fill-0, black)"/>
<path id="O" fill-rule="evenodd" clip-rule="evenodd" d="M14.9477 0C13.6411 0 12.5435 1.07454 12.5435 2.47144C12.5435 3.81461 13.5888 4.94288 14.9477 4.99661C16.3066 5.05033 17.3519 3.92207 17.4042 2.52517C17.3519 1.12827 16.3066 0 14.9477 0V0Z" fill="var(--fill-0, #FD6020)"/>
</g>
</svg>
