<svg preserveAspectRatio="none" width="100%" height="100%" overflow="visible" style="display: block;" viewBox="0 0 8.27213 8.56359" fill="none" xmlns="http://www.w3.org/2000/svg">
<g id="G">
<path id="Blue" d="M8.27209 4.37706C8.27209 4.08567 8.24865 3.79428 8.20175 3.50884H4.22176V5.15609H6.5019C6.40812 5.68535 6.10332 6.16109 5.65784 6.45843V7.52885H7.01772C7.81489 6.7855 8.27209 5.68535 8.27209 4.37706Z" fill="var(--fill-0, #4285F4)"/>
<path id="Green" d="M4.22194 8.56357C5.35908 8.56357 6.32038 8.18298 7.0179 7.52884L5.65802 6.45842C5.27702 6.72008 4.79051 6.86875 4.22194 6.86875C3.11996 6.86875 2.18798 6.11351 1.85387 5.10256H0.452956V6.20865C1.16807 7.65372 2.62759 8.56357 4.22194 8.56357Z" fill="var(--fill-0, #34A853)"/>
<path id="Yellow" d="M1.85404 5.10258C1.67816 4.57332 1.67816 3.99648 1.85404 3.46127V2.36112H0.452904C-0.150932 3.56832 -0.150932 4.99554 0.452904 6.20273L1.85404 5.10258Z" fill="var(--fill-0, #FBBC04)"/>
<path id="Red" d="M4.22194 1.69509C4.82568 1.68319 5.40597 1.91512 5.83973 2.33734L7.04721 1.11231C6.27934 0.3868 5.27116 -0.0116328 4.22194 0.000260716C2.62759 0.000260716 1.16807 0.916062 0.452956 2.36113L1.85387 3.46722C2.18798 2.45033 3.11996 1.69509 4.22194 1.69509Z" fill="var(--fill-0, #EA4335)"/>
</g>
</svg>
