<svg preserveAspectRatio="none" width="100%" height="100%" overflow="visible" style="display: block;" viewBox="0 0 18 18" fill="none" xmlns="http://www.w3.org/2000/svg">
<g id="Lock-2--Streamline-Ultimate">
<path id="Vector" d="M14.6249 7.125H14.0624V5.0625C14.0624 3.71984 13.5291 2.43217 12.5797 1.48277C11.6303 0.533369 10.3426 0 8.99993 0C7.65727 0 6.3696 0.533369 5.4202 1.48277C4.4708 2.43217 3.93743 3.71984 3.93743 5.0625V7.125H3.37493C2.9771 7.125 2.59557 7.28303 2.31427 7.56434C2.03296 7.84564 1.87493 8.22718 1.87493 8.625V16.5C1.87493 16.8978 2.03296 17.2794 2.31427 17.5607C2.59557 17.842 2.9771 18 3.37493 18H14.6249C15.0228 18 15.4043 17.842 15.6856 17.5607C15.9669 17.2794 16.1249 16.8978 16.1249 16.5V8.625C16.1249 8.22718 15.9669 7.84564 15.6856 7.56434C15.4043 7.28303 15.0228 7.125 14.6249 7.125ZM8.99993 13.875C8.70326 13.875 8.41325 13.787 8.16657 13.6222C7.9199 13.4574 7.72764 13.2231 7.61411 12.949C7.50058 12.6749 7.47087 12.3733 7.52875 12.0824C7.58663 11.7914 7.72949 11.5241 7.93927 11.3143C8.14905 11.1046 8.41632 10.9617 8.70729 10.9038C8.99826 10.8459 9.29986 10.8756 9.57395 10.9892C9.84804 11.1027 10.0823 11.295 10.2471 11.5416C10.412 11.7883 10.4999 12.0783 10.4999 12.375C10.4999 12.572 10.4611 12.767 10.3857 12.949C10.3104 13.131 10.1999 13.2964 10.0606 13.4357C9.9213 13.5749 9.75594 13.6854 9.57395 13.7608C9.39196 13.8362 9.19691 13.875 8.99993 13.875ZM12.1874 6.75C12.1874 6.79925 12.1777 6.84801 12.1589 6.89351C12.14 6.939 12.1124 6.98034 12.0776 7.01516C12.0428 7.04999 12.0014 7.07761 11.9559 7.09646C11.9104 7.1153 11.8617 7.125 11.8124 7.125H6.18743C6.08797 7.125 5.99259 7.08549 5.92226 7.01516C5.85194 6.94484 5.81243 6.84946 5.81243 6.75V5.0625C5.81243 4.21712 6.14825 3.40637 6.74602 2.8086C7.3438 2.21082 8.15455 1.875 8.99993 1.875C9.8453 1.875 10.6561 2.21082 11.2538 2.8086C11.8516 3.40637 12.1874 4.21712 12.1874 5.0625V6.75Z" fill="var(--fill-0, #B9FCAB)"/>
</g>
</svg>
